# xmcd CD database file
#
# Track frame offsets:
#	150
#	14135
#	23958
#	44807
#	56976
#	65894
#	76064
#	87524
#	99094
#	110347
#	122141
#	131546
#	141834
#	153033
#	162646
#	174537
#	184703
#	196430
#	205561
#	214725
#
# Disc length: 3087 seconds
#
# Revision: 0
# Processed by: cddbd v1.5.2PL0 Copyright (c) Steve Scherf et al.
# Submitted via: CDex 1.75
#
DISCID=230c0d14
DTITLE=Various Artist - On The Road Again - 20 Super Trucker Hits - Vol.1
DYEAR=1900
DGENRE=Country
TTITLE0=Rocky Top - Lynn Anderson
TTITLE1=King Of The Road - Boxcar Willie
TTITLE2=Six Days On The Road - Freddy Fender
TTITLE3=Okie From Muskogee - Merle Haggard
TTITLE4=I Want To Go Home - Johnny Cash
TTITLE5=Big Wheels - Hank Snow
TTITLE6=Back Up, Buddy - Carl Smith
TTITLE7=Highway To Nowhere - Jim Reeves
TTITLE8=Diesel Smoke - The Sons Of The Pioneers
TTITLE9=Hot Rod Race - Red Foley
TTITLE10=Trucker From Tennessee - Link Davies
TTITLE11=Truck Driving Man - Terry Fell
TTITLE12=Ballad Of The Thunder Road - Robert Mitchum
TTITLE13=Detour - Duane Eddy
TTITLE14=Smoke, Smoke, Smoke - Tex Williams
TTITLE15=It Makes No Difference Now - Billie Jo Spears
TTITLE16=The Happiest Girl In The Whole USA - Donna Fargo
TTITLE17=Sugar Foot Rag - Porter Wagoner
TTITLE18=Speedin' West - Speedy West
TTITLE19=I Let My Mind Wonder - Willie Nelson
EXTD=
EXTT0=
EXTT1=
EXTT2=
EXTT3=
EXTT4=
EXTT5=
EXTT6=
EXTT7=
EXTT8=
EXTT9=
EXTT10=
EXTT11=
EXTT12=
EXTT13=
EXTT14=
EXTT15=
EXTT16=
EXTT17=
EXTT18=
EXTT19=
PLAYORDER=
